HIERARCHY
ROOT Hips
{
	OFFSET 0.000000 0.000000 0.000000 
	CHANNELS 6 Xposition Yposition Zposition Zrotation Yrotation Xrotation
	JOINT LeftUpLeg
	{
		OFFSET 1.363060 -1.794630 0.839290 
		CHANNELS 3 Zrotation Yrotation Xrotation
		JOINT LeftLeg
		{
			OFFSET 2.448110 -6.726130 0.000000 
			CHANNELS 3 Zrotation Yrotation Xrotation
			JOINT LeftFoot
			{
				OFFSET 2.562200 -7.039590 0.000000 
				CHANNELS 3 Zrotation Yrotation Xrotation
				JOINT LeftToeBase
				{
					OFFSET 0.157640 -0.433110 2.322550 
					CHANNELS 3 Zrotation Yrotation Xrotation
					End Site
					{
						OFFSET 0.000000 0.000000 0.000000 
					}
				}
			}
		}
	}
	JOINT RightUpLeg
	{
		OFFSET -1.305520 -1.794630 0.839290 
		CHANNELS 3 Zrotation Yrotation Xrotation
		JOINT RightLeg
		{
			OFFSET -2.542530 -6.985550 0.000000 
			CHANNELS 3 Zrotation Yrotation Xrotation
			JOINT RightFoot
			{
				OFFSET -2.568260 -7.056230 0.000000 
				CHANNELS 3 Zrotation Yrotation Xrotation
				JOINT RightToeBase
				{
					OFFSET -0.164730 -0.452590 2.363150 
					CHANNELS 3 Zrotation Yrotation Xrotation
					End Site
					{
						OFFSET 0.000000 0.000000 0.000000 
					}
				}
			}
		}
	}
	JOINT Spine
	{
		OFFSET 0.028270 2.035590 -0.193380 
		CHANNELS 3 Zrotation Yrotation Xrotation
		JOINT Spine1
		{
			OFFSET 0.056720 2.048850 -0.042750 
			CHANNELS 3 Zrotation Yrotation Xrotation
			JOINT Neck1
			{
				OFFSET -0.054170 1.746240 0.172020 
				CHANNELS 3 Zrotation Yrotation Xrotation
				JOINT Head
				{
					OFFSET 0.104070 1.761360 -0.123970 
					CHANNELS 3 Zrotation Yrotation Xrotation
					End Site
					{
						OFFSET 0.000000 0.000000 0.000000 
					}
				}
			}
			JOINT LeftArm
			{
				OFFSET 3.362410 1.200890 -0.311210 
				CHANNELS 3 Zrotation Yrotation Xrotation
				JOINT LeftForeArm
				{
					OFFSET 4.983000 -0.000000 -0.000000 
					CHANNELS 3 Zrotation Yrotation Xrotation
					JOINT LeftHand
					{
						OFFSET 3.483560 -0.000000 -0.000000 
						CHANNELS 3 Zrotation Yrotation Xrotation
						JOINT LeftHandIndex1
						{
							OFFSET 0.715260 -0.000000 -0.000000 
							CHANNELS 3 Zrotation Yrotation Xrotation
							End Site
							{
								OFFSET 0.000000 0.000000 0.000000 
							}
						}
					}
				}
			}
			JOINT RightArm
			{
				OFFSET -3.136600 1.374050 -0.404650 
				CHANNELS 3 Zrotation Yrotation Xrotation
				JOINT RightForeArm
				{
					OFFSET -5.241900 -0.000000 -0.000000 
					CHANNELS 3 Zrotation Yrotation Xrotation
					JOINT RightHand
					{
						OFFSET -3.444170 -0.000000 -0.000000 
						CHANNELS 3 Zrotation Yrotation Xrotation
						JOINT RightHandIndex1
						{
							OFFSET -0.622530 -0.000000 -0.000000 
							CHANNELS 3 Zrotation Yrotation Xrotation
							End Site
							{
								OFFSET 0.000000 0.000000 0.000000 
							}
						}
					}
				}
			}
		}
	}
}
MOTION
Frames: 12
Frame Time: 0.041667
0.562677 17.802278 -14.405193 -1.974719 -1.616116 6.934684 -14.685260 3.744893 -18.125587 -0.056851 7.128940 19.522063 -0.554677 4.373788 -0.774979 0.070500 1.712800 4.712700 18.546494 2.986015 -15.825137 -0.643855 -7.919029 22.213840 0.118905 -2.448266 -4.707205 -0.248500 -3.207800 8.857800 1.481009 -1.077777 -1.418186 1.129550 -0.948462 8.821503 2.718779 0.403559 33.583422 0.678800 0.628500 13.055400 -96.070201 -11.855596 33.422985 8.014191 -17.834020 -1.349268 -0.141279 -0.687485 -1.054838 -7.125000 0.000000 0.000000 93.879755 10.677610 16.832161 -10.237979 22.135028 -2.357916 0.706589 0.926992 32.284992 7.125000 0.000000 0.000000 
0.562170 17.801669 -14.406107 -1.992422 -1.610914 6.940334 -14.665202 3.757113 -18.161325 -0.051413 7.143117 19.562251 -0.548001 4.343536 -0.784063 0.072500 1.737600 4.781100 18.570295 3.001849 -15.836984 -0.645916 -7.924530 22.228769 0.121971 -2.466077 -4.720174 -0.246500 -3.195100 8.822500 1.482694 -1.075159 -1.416536 1.126051 -0.947002 8.823033 2.687194 0.383073 33.587044 0.654700 0.620800 13.064600 -96.069316 -11.887658 33.446210 8.003553 -17.814336 -1.345079 -0.142486 -0.687064 -1.072653 -7.125000 0.000000 0.000000 93.891536 10.674839 16.896444 -10.269967 22.182993 -2.368967 0.704417 0.932554 32.195746 7.125000 0.000000 0.000000 
0.561967 17.800857 -14.406310 -1.992823 -1.598281 6.939334 -14.664785 3.741230 -18.171192 -0.047602 7.153753 19.592197 -0.548023 4.343195 -0.805913 0.069900 1.705800 4.693400 18.572085 3.007507 -15.842686 -0.649099 -7.931592 22.248863 0.126171 -2.490166 -4.729577 -0.243900 -3.178300 8.775500 1.482385 -1.076307 -1.416859 1.125495 -0.946980 8.813445 2.707106 0.382260 33.581123 0.665500 0.621000 13.056900 -96.068426 -11.883823 33.465025 8.016728 -17.837360 -1.351648 -0.138885 -0.687001 -1.103511 -7.125000 0.000000 0.000000 93.905011 10.697584 16.895093 -10.270447 22.180685 -2.367548 0.702518 0.937214 32.146664 7.125000 0.000000 0.000000 
0.561865 17.800451 -14.406919 -1.993750 -1.609285 6.949986 -14.665334 3.743005 -18.198962 -0.043369 7.165165 19.623624 -0.548483 4.345084 -0.812996 0.070600 1.714200 4.716600 18.573078 3.009172 -15.869775 -0.651775 -7.938652 22.268360 0.122921 -2.472788 -4.729881 -0.242100 -3.166500 8.742700 1.484423 -1.079019 -1.414852 1.135942 -0.949868 8.819706 2.690731 0.380369 33.580892 0.656900 0.619000 13.060300 -96.082250 -11.899084 33.446784 8.020891 -17.844307 -1.351875 -0.139886 -0.687270 -1.099743 -7.125000 0.000000 0.000000 93.897343 10.704771 16.957281 -10.287402 22.207286 -2.375110 0.702145 0.935586 32.112007 7.125000 0.000000 0.000000 
0.561764 17.799841 -14.407326 -1.997340 -1.611155 6.953637 -14.662039 3.742667 -18.217600 -0.039801 7.174746 19.650063 -0.548107 4.343407 -0.821796 0.070400 1.711400 4.708700 18.578225 3.015040 -15.886556 -0.655045 -7.946799 22.290819 0.122989 -2.474424 -4.735719 -0.239600 -3.150000 8.696500 1.485432 -1.078465 -1.413264 1.140130 -0.950215 8.819524 2.687132 0.375775 33.580656 0.653600 0.617200 13.062600 -96.090093 -11.915867 33.445481 8.021745 -17.845268 -1.352043 -0.139793 -0.687174 -1.104112 -7.125000 0.000000 0.000000 93.899592 10.715358 16.993475 -10.301910 22.228468 -2.380715 0.701135 0.936803 32.068805 7.125000 0.000000 0.000000 
0.561662 17.799130 -14.407833 -2.000850 -1.614035 6.956014 -14.658514 3.740630 -18.235167 -0.035921 7.185008 19.678785 -0.548330 4.344351 -0.832042 0.070000 1.706700 4.695800 18.583107 3.021640 -15.902388 -0.658412 -7.955023 22.314114 0.123068 -2.475468 -4.739862 -0.237300 -3.135000 8.654800 1.486235 -1.077072 -1.411239 1.143969 -0.950139 8.820109 2.687040 0.372889 33.581529 0.652200 0.616500 13.066100 -96.098114 -11.933290 33.443356 8.023467 -17.847622 -1.352544 -0.139767 -0.687094 -1.107213 -7.125000 0.000000 0.000000 93.901775 10.725821 17.028322 -10.317254 22.251101 -2.386718 0.700333 0.937539 32.029505 7.125000 0.000000 0.000000 
0.561459 17.798521 -14.408240 -2.003902 -1.617561 6.957140 -14.655149 3.738129 -18.250746 -0.032204 7.194787 19.706263 -0.548920 4.346725 -0.840792 0.069600 1.701800 4.682200 18.587651 3.028127 -15.918380 -0.662169 -7.964247 22.339766 0.122816 -2.474680 -4.743420 -0.235800 -3.125000 8.626900 1.487078 -1.075361 -1.408867 1.148810 -0.949910 8.820771 2.688990 0.368539 33.579840 0.651900 0.615000 13.067700 -96.106571 -11.950614 33.442068 8.026182 -17.851491 -1.353047 -0.139997 -0.687023 -1.112217 -7.125000 0.000000 0.000000 93.902439 10.734943 17.064052 -10.334022 22.276102 -2.393367 0.699628 0.938050 31.991760 7.125000 0.000000 0.000000 
0.561357 17.797912 -14.408747 -2.007021 -1.621122 6.957261 -14.651357 3.734685 -18.265514 -0.028280 7.204746 19.734082 -0.549924 4.350795 -0.849315 0.069000 1.694300 4.661500 18.592233 3.036442 -15.934351 -0.666309 -7.974279 22.368130 0.122701 -2.474541 -4.747826 -0.235200 -3.121000 8.615700 1.487728 -1.072904 -1.406526 1.153388 -0.949386 8.820514 2.694754 0.361156 33.577501 0.653600 0.612100 13.068600 -96.113178 -11.965139 33.447069 8.032259 -17.861369 -1.354839 -0.140153 -0.686989 -1.124010 -7.125000 0.000000 0.000000 93.902957 10.743844 17.096553 -10.350327 22.300249 -2.399863 0.699022 0.938605 31.955566 7.125000 0.000000 0.000000 
0.561154 17.797201 -14.409255 -2.008576 -1.623832 6.957786 -14.649071 3.729492 -18.281476 -0.024310 7.215275 19.763588 -0.550802 4.354631 -0.858250 0.068200 1.685400 4.637000 18.595192 3.044447 -15.952598 -0.670843 -7.985292 22.399087 0.122333 -2.473766 -4.753074 -0.235400 -3.122300 8.619500 1.488508 -1.071728 -1.404873 1.159792 -0.949490 8.817532 2.701469 0.351977 33.573561 0.656100 0.608000 13.067800 -96.118904 -11.974669 33.454771 8.041577 -17.876797 -1.357592 -0.140243 -0.686986 -1.145563 -7.125000 0.000000 0.000000 93.902007 10.750062 17.129827 -10.366894 22.324684 -2.406285 0.698475 0.939312 31.918747 7.125000 0.000000 0.000000 
0.561053 17.796389 -14.409966 -2.010746 -1.628021 6.959890 -14.646420 3.724135 -18.300660 -0.019791 7.227042 19.796334 -0.551965 4.359546 -0.868175 0.067500 1.676000 4.611100 18.598246 3.053416 -15.974349 -0.675608 -7.996937 22.431879 0.121934 -2.472256 -4.756430 -0.235900 -3.126200 8.630200 1.489101 -1.070342 -1.403417 1.164931 -0.949366 8.813864 2.707696 0.344060 33.567399 0.658300 0.604600 13.064800 -96.121415 -11.981777 33.468285 8.054220 -17.898356 -1.361635 -0.140234 -0.687035 -1.176606 -7.125000 0.000000 0.000000 93.901619 10.757483 17.154928 -10.379750 22.343446 -2.411387 0.698251 0.939522 31.893947 7.125000 0.000000 0.000000 
0.560951 17.795576 -14.410677 -2.014452 -1.633242 6.962268 -14.642983 3.720493 -18.323249 -0.014777 7.240024 19.832843 -0.553054 4.364229 -0.878860 0.066800 1.667100 4.586600 18.603145 3.063939 -15.997391 -0.680655 -8.009207 22.466389 0.121705 -2.472037 -4.763128 -0.235600 -3.123600 8.623100 1.489732 -1.068866 -1.402796 1.169150 -0.948930 8.806249 2.713685 0.339396 33.560736 0.660300 0.602800 13.060400 -96.122171 -11.987117 33.482062 8.065596 -17.917429 -1.365191 -0.140415 -0.686984 -1.210162 -7.125000 0.000000 0.000000 93.900928 10.762989 17.174260 -10.390310 22.358445 -2.415395 0.698167 0.939629 31.873541 7.125000 0.000000 0.000000 
0.560850 17.794662 -14.411591 -2.021597 -1.639777 6.965220 -14.636336 3.717886 -18.349364 -0.009086 7.254506 19.873571 -0.554161 4.368772 -0.891178 0.066000 1.657300 4.559600 18.611840 3.076168 -16.021949 -0.685958 -8.022127 22.502275 0.121760 -2.473357 -4.769145 -0.234500 -3.116800 8.604100 1.490574 -1.067676 -1.402111 1.171542 -0.948383 8.798056 2.718134 0.340805 33.553086 0.661800 0.604100 13.055300 -96.121697 -11.995159 33.491391 8.075633 -17.934042 -1.368372 -0.140428 -0.686922 -1.242742 -7.125000 0.000000 0.000000 93.900229 10.770411 17.191335 -10.399110 22.370725 -2.418808 0.698113 0.939724 31.853429 7.125000 0.000000 0.000000 
